<svg width="28" height="30" viewBox="0 0 28 30" fill="none" xmlns="http://www.w3.org/2000/svg">
<g filter="url(#filter0_d_0_131)">
<path d="M14.9677 3C14.6114 3 14.3226 3.27441 14.3226 3.6129C14.3226 3.9514 14.6114 4.22581 14.9677 4.22581C19.2435 4.22581 22.7097 7.51868 22.7097 11.5806C22.7097 11.9191 22.9985 12.1935 23.3548 12.1935C23.7112 12.1935 24 11.9191 24 11.5806C24 6.84169 19.9561 3 14.9677 3Z" fill="#E4E5EA"/>
<path d="M6.70912 4.99957C7.07483 4.821 7.71892 4.73049 8.0881 5.05724C8.54956 5.46566 9.26077 6.18162 9.74938 6.80628C10.238 7.43094 10.9221 8.38235 11.0198 8.59378C11.1175 8.8052 11.2261 9.5548 10.7375 10.0065C10.3466 10.3678 9.83625 10.6888 9.62994 10.8041C9.43812 10.9643 9.12396 11.4346 9.40192 12.0342C9.74938 12.7838 10.4986 14.2542 11.7907 15.3497C13.0828 16.4453 14.4509 17.0219 15.3087 17.2045C15.3633 17.2045 15.4333 17.2169 15.5145 17.2312C15.8052 17.2826 16.2383 17.359 16.6117 16.9835C16.9939 16.5991 17.3428 16.1954 17.4695 16.0417C17.6685 15.8367 18.2469 15.4881 18.9679 15.7342C19.8691 16.0417 20.9006 16.7144 21.3675 17.0315C21.741 17.2852 22.5728 17.8868 22.9419 18.1559C23.1663 18.3193 23.5413 18.8056 23.246 19.4437C22.8768 20.2413 21.3024 22 19.8908 22C19.3697 22 14.3315 20.645 9.87968 16.8201C7.03602 14.3769 4.58817 10.1378 4.16833 8.7091C4.00908 8.36954 3.82087 7.53281 4.34206 6.90238C4.86325 6.27195 5.4496 5.61462 6.70912 4.99957Z" fill="#E4E5EA"/>
<path d="M14.9677 7.90323C14.6114 7.90323 14.3226 8.17763 14.3226 8.51613C14.3226 8.85463 14.6114 9.12903 14.9677 9.12903C16.393 9.12903 17.5484 10.2267 17.5484 11.5806C17.5484 11.9191 17.8372 12.1935 18.1935 12.1935C18.5499 12.1935 18.8387 11.9191 18.8387 11.5806C18.8387 9.54966 17.1056 7.90323 14.9677 7.90323Z" fill="#E4E5EA"/>
<path d="M14.3226 6.06452C14.3226 5.72602 14.6114 5.45161 14.9677 5.45161C18.5309 5.45161 21.4194 8.19567 21.4194 11.5806C21.4194 11.9191 21.1305 12.1935 20.7742 12.1935C20.4179 12.1935 20.129 11.9191 20.129 11.5806C20.129 8.87267 17.8182 6.67742 14.9677 6.67742C14.6114 6.67742 14.3226 6.40301 14.3226 6.06452Z" fill="#E4E5EA"/>
</g>
<defs>
<filter id="filter0_d_0_131" x="-2" y="0" width="32" height="32" filterUnits="userSpaceOnUse" color-interpolation-filters="sRGB">
<feFlood flood-opacity="0" result="BackgroundImageFix"/>
<feColorMatrix in="SourceAlpha" type="matrix" values="0 0 0 0 0 0 0 0 0 0 0 0 0 0 0 0 0 0 127 0" result="hardAlpha"/>
<feOffset dy="4"/>
<feGaussianBlur stdDeviation="2"/>
<feComposite in2="hardAlpha" operator="out"/>
<feColorMatrix type="matrix" values="0 0 0 0 0 0 0 0 0 0 0 0 0 0 0 0 0 0 0.25 0"/>
<feBlend mode="normal" in2="BackgroundImageFix" result="effect1_dropShadow_0_131"/>
<feBlend mode="normal" in="SourceGraphic" in2="effect1_dropShadow_0_131" result="shape"/>
</filter>
</defs>
</svg>
